<?xml version="1.0" standalone="no"?>
<!DOCTYPE svg PUBLIC "-//W3C//DTD SVG 20010904//EN"
 "http://www.w3.org/TR/2001/REC-SVG-20010904/DTD/svg10.dtd">
<svg version="1.0" xmlns="http://www.w3.org/2000/svg"
 width="3063.000000pt" height="3063.000000pt" viewBox="0 0 3063.000000 3063.000000"
 preserveAspectRatio="xMidYMid meet">
<metadata>
Created by potrace 1.14, written by Peter Selinger 2001-2017
</metadata>
<g transform="translate(0.000000,3063.000000) scale(0.100000,-0.100000)"
fill="#000000" stroke="none">
<path d="M7055 24140 c-815 -91 -1512 -480 -1991 -1111 -541 -714 -709 -1629
-458 -2501 96 -334 295 -714 514 -983 192 -235 450 -463 710 -625 145 -91 412
-215 590 -274 306 -101 508 -135 840 -143 290 -6 481 15 745 82 494 125 910
357 1273 709 498 484 786 1085 853 1781 15 152 6 504 -16 645 -95 614 -357
1146 -774 1573 -443 454 -989 731 -1626 828 -148 23 -528 34 -660 19z"/>
<path d="M20191 19674 c-69 -18 -105 -45 -138 -102 l-28 -47 -5 -1583 -5
-1583 -1185 819 c-652 450 -1715 1185 -2362 1633 -647 448 -1196 824 -1220
837 -51 28 -115 25 -181 -8 -23 -12 -609 -415 -1302 -896 -693 -481 -1345
-934 -1450 -1007 -104 -72 -676 -468 -1270 -880 -1009 -700 -1696 -1177 -4838
-3357 -3146 -2184 -3836 -2663 -4170 -2894 -197 -137 -363 -258 -369 -270 -6
-11 -17 -25 -24 -29 -10 -6 -14 -33 -14 -97 0 -75 3 -92 19 -107 11 -10 21
-29 23 -43 3 -23 9 -26 65 -32 34 -4 76 -14 95 -24 31 -16 164 -17 2323 -10
1861 5 2292 9 2300 20 6 7 20 15 31 18 12 3 372 248 800 545 693 480 2308
1597 2709 1873 361 248 2342 1618 2560 1770 232 162 2296 1588 2522 1743 61
42 114 77 117 77 3 0 544 -375 1203 -833 659 -458 1767 -1229 2463 -1713 696
-484 1837 -1277 2535 -1763 699 -485 1545 -1074 1880 -1308 336 -234 624 -434
640 -444 29 -18 93 -19 2376 -19 l2345 0 27 41 c15 22 27 52 27 65 0 14 7 27
15 30 11 4 15 21 15 55 0 46 2 50 35 66 19 9 35 24 35 33 0 20 -68 86 -95 92
-11 3 -227 150 -480 328 -1622 1140 -2960 2079 -4567 3205 l-428 300 -2 2665
-3 2665 -27 52 c-32 61 -79 99 -144 119 -71 21 -2773 20 -2853 -2z"/>
<path d="M4040 6970 l0 -520 11300 0 11300 0 0 520 0 520 -11300 0 -11300 0 0
-520z"/>
</g>
</svg>
